<svg version="1.0" xmlns="http://www.w3.org/2000/svg"
 width="1024.000000pt" height="1024.000000pt" viewBox="0 0 1024.000000 1024.000000"
 preserveAspectRatio="xMidYMid meet">
<g transform="translate(0.000000,1024.000000) scale(0.100000,-0.100000)"
fill="#3182ce" stroke="none">
<path d="M3149 7729 c-26 -7 -189 -141 -561 -457 -288 -246 -707 -602 -931
-791 -295 -249 -409 -352 -416 -374 -26 -74 -2 -148 61 -188 47 -29 124 -22
172 15 l36 27 0 -153 c0 -84 0 -483 0 -886 0 -711 0 -733 20 -771 24 -47 61
-78 109 -90 20 -5 187 -11 371 -13 333 -3 335 -3 371 20 59 36 80 123 43 179
-31 49 -61 53 -370 53 l-286 0 4 873 c1 479 -1 906 -5 947 l-8 75 80 62 c79
62 157 128 957 810 l413 352 108 -97 c60 -54 164 -143 233 -198 69 -56 188
-157 265 -225 77 -68 192 -167 255 -219 63 -52 160 -133 215 -180 55 -48 169
-142 254 -209 85 -68 188 -156 230 -196 126 -121 204 -185 236 -193 102 -28
204 81 176 186 -15 53 -31 73 -119 144 -42 34 -180 150 -306 256 -126 107
-246 206 -267 221 l-38 26 -1 363 0 364 -29 29 -29 29 -206 0 c-112 0 -216 -4
-230 -10 -39 -14 -46 -40 -47 -169 0 -67 -4 -121 -9 -121 -5 0 -35 23 -67 50
-32 28 -112 94 -178 147 -66 53 -163 135 -215 181 -52 47 -111 95 -130 108
-41 27 -111 37 -161 23z"/>
<path d="M2003 6125 c-58 -25 -82 -115 -46 -176 31 -52 62 -59 265 -59 l184 0
22 -92 c11 -51 71 -280 131 -508 61 -228 111 -422 111 -431 0 -8 -23 -57 -52
-108 -45 -82 -52 -100 -56 -165 -5 -78 13 -161 48 -218 14 -23 17 -42 13 -82
-12 -114 58 -236 165 -287 108 -53 256 -19 342 78 122 139 74 366 -95 448 -51
25 -62 27 -155 23 -118 -4 -118 -5 -63 88 l37 63 550 3 551 3 53 28 c115 60
177 145 226 307 14 47 52 191 86 320 67 263 74 330 38 375 -44 57 -20 55 -882
55 l-795 0 -11 43 c-40 155 -68 205 -139 252 -70 47 -119 55 -315 55 -132 -1
-190 -5 -213 -15z m2107 -602 c2 -2 -4 -34 -14 -71 -10 -37 -38 -140 -61 -229
-48 -183 -63 -215 -124 -258 l-43 -30 -481 4 c-265 2 -483 4 -485 6 -3 3 -138
517 -147 561 l-6 31 678 -5 c373 -2 680 -6 683 -9z m-1155 -1208 c46 -45 24
-115 -40 -131 -47 -12 -104 48 -88 93 22 62 86 81 128 38z"/>
<path d="M4859 5559 c-14 -5 -31 -21 -38 -35 -13 -29 -15 -365 -4 -858 8 -378
1 -359 114 -364 154 -8 154 -8 134 373 l-4 80 76 -2 75 -2 62 -103 c79 -132
178 -278 203 -300 34 -31 91 -48 158 -48 127 0 138 65 34 206 -23 32 -77 112
-118 178 l-77 121 45 30 c61 41 124 121 151 192 19 50 21 72 18 160 -4 89 -9
110 -37 167 -38 78 -100 136 -191 180 l-65 31 -255 2 c-150 1 -266 -2 -281 -8z
m448 -224 c55 -17 117 -74 129 -120 11 -46 -1 -130 -24 -163 -40 -55 -100 -75
-226 -76 -61 -1 -112 2 -113 7 -2 4 -3 88 -3 187 l0 180 93 0 c54 0 115 -6
144 -15z"/>
<path d="M6822 5560 c-205 -7 -192 11 -192 -254 0 -110 3 -374 7 -585 7 -448
0 -421 108 -421 75 0 116 17 133 55 8 17 12 86 12 200 l0 175 133 0 c206 0
302 34 402 142 76 82 99 145 99 273 -1 128 -24 192 -99 273 -118 128 -230 155
-603 142z m324 -235 c85 -25 128 -86 127 -181 -1 -142 -76 -194 -281 -194
l-115 0 6 128 c4 70 7 157 7 195 l0 67 103 0 c62 0 123 -6 153 -15z"/>
<path d="M6045 5196 c-140 -44 -253 -172 -290 -328 -53 -226 54 -465 243 -539
146 -58 381 -20 487 78 22 21 26 32 22 59 -7 44 -34 83 -64 90 -15 4 -46 -4
-86 -21 -73 -32 -184 -44 -241 -25 -68 22 -136 102 -136 160 0 19 7 20 118 22
64 1 179 1 255 -1 133 -3 139 -3 162 19 22 21 25 32 25 96 0 176 -96 331 -236
384 -64 23 -194 27 -259 6z m203 -193 c36 -27 59 -69 68 -121 l7 -42 -180 0
-180 0 7 39 c18 98 92 155 193 148 37 -2 67 -10 85 -24z"/>
<path d="M7845 5193 c-189 -68 -295 -224 -295 -437 0 -198 85 -341 250 -420
61 -29 72 -31 181 -31 113 0 117 1 191 37 166 83 250 221 251 413 1 154 -40
253 -143 349 -82 75 -145 98 -280 103 -82 3 -116 0 -155 -14z m207 -183 c51
-15 91 -51 119 -107 19 -39 23 -65 23 -138 1 -77 -3 -98 -25 -146 -36 -77 -83
-112 -159 -117 -76 -6 -121 10 -164 58 -47 53 -70 131 -64 225 11 168 127 264
270 225z"/>
<path d="M8543 5195 c-12 -8 -26 -30 -32 -48 -14 -42 -13 -740 1 -785 12 -39
54 -64 112 -64 113 -2 116 8 116 330 l0 258 36 42 c45 53 81 72 136 72 53 0
101 -28 125 -72 16 -29 19 -68 23 -304 5 -249 7 -274 24 -293 50 -55 170 -43
196 19 8 19 10 122 8 336 l-3 309 -27 51 c-28 54 -87 112 -140 140 -44 23
-165 30 -224 14 -28 -8 -63 -29 -85 -50 l-39 -37 -26 35 c-15 19 -42 40 -60
48 -44 18 -114 18 -141 -1z"/>
<path d="M3743 4526 c-181 -86 -229 -309 -97 -455 135 -150 377 -118 472 63
37 71 39 189 4 256 -30 58 -66 95 -121 128 -35 21 -60 26 -125 29 -70 4 -88 1
-133 -21z m178 -205 c16 -16 29 -37 29 -46 0 -24 -27 -72 -45 -79 -86 -33
-154 65 -90 129 33 33 70 32 106 -4z"/>
</g>
</svg>
